{"asset":{"version":"2.0","generator":"babylon.js glTF exporter for maya 2018 v20190805.3"},"scene":0,"scenes":[{"nodes":[0,1,2],"extensions":{}}],"nodes":[{"mesh":0,"translation":[0.0,0.0,0.0],"rotation":[0.0,0.0,0.0,1.0],"scale":[1.0,1.0,1.0],"name":"arm"},{"mesh":1,"translation":[0.0,0.0,0.0],"rotation":[0.0,0.0,0.0,1.0],"scale":[1.0,1.0,1.0],"name":"elbow"},{"mesh":2,"translation":[0.0,0.0,0.0],"rotation":[0.0,0.0,0.0,1.0],"scale":[1.0,1.0,1.0],"name":"forearm"}],"meshes":[{"primitives":[{"attributes":{"POSITION":1,"NORMAL":2,"TANGENT":3,"TEXCOORD_0":4},"indices":0,"mode":4,"material":0}],"name":"arm"},{"primitives":[{"attributes":{"POSITION":6,"NORMAL":7,"TANGENT":8,"TEXCOORD_0":9},"indices":5,"mode":4,"material":0}],"name":"elbow"},{"primitives":[{"attributes":{"POSITION":11,"NORMAL":12,"TANGENT":13,"TEXCOORD_0":14},"indices":10,"mode":4,"material":0}],"name":"forearm"}],"accessors":[{"bufferView":0,"componentType":5123,"count":3600,"type":"SCALAR","name":"accessorIndices"},{"bufferView":1,"componentType":5126,"count":712,"max":[0.355637461,5.960466E-09,0.40171054],"min":[-0.3556373,-2.0,-0.355637282],"type":"VEC3","name":"accessorPositions"},{"bufferView":1,"byteOffset":8544,"componentType":5126,"count":712,"type":"VEC3","name":"accessorNormals"},{"bufferView":2,"componentType":5126,"count":712,"type":"VEC4","name":"accessorTangents"},{"bufferView":3,"componentType":5126,"count":712,"type":"VEC2","name":"accessorUVs"},{"bufferView":0,"byteOffset":7200,"componentType":5123,"count":2280,"type":"SCALAR","name":"accessorIndices"},{"bufferView":1,"byteOffset":17088,"componentType":5126,"count":439,"max":[0.299999952,0.3,0.300000042],"min":[-0.300000072,-0.3,-0.300000161],"type":"VEC3","name":"accessorPositions"},{"bufferView":1,"byteOffset":22356,"componentType":5126,"count":439,"type":"VEC3","name":"accessorNormals"},{"bufferView":2,"byteOffset":11392,"componentType":5126,"count":439,"type":"VEC4","name":"accessorTangents"},{"bufferView":3,"byteOffset":5696,"componentType":5126,"count":439,"type":"VEC2","name":"accessorUVs"},{"bufferView":0,"byteOffset":11760,"componentType":5123,"count":3600,"type":"SCALAR","name":"accessorIndices"},{"bufferView":1,"byteOffset":27624,"componentType":5126,"count":712,"max":[0.0,0.355637461,0.40171054],"min":[-2.0,-0.355637372,-0.355637282],"type":"VEC3","name":"accessorPositions"},{"bufferView":1,"byteOffset":36168,"componentType":5126,"count":712,"type":"VEC3","name":"accessorNormals"},{"bufferView":2,"byteOffset":18416,"componentType":5126,"count":712,"type":"VEC4","name":"accessorTangents"},{"bufferView":3,"byteOffset":9208,"componentType":5126,"count":712,"type":"VEC2","name":"accessorUVs"}],"bufferViews":[{"buffer":0,"byteLength":18960,"name":"bufferViewScalar"},{"buffer":0,"byteOffset":18960,"byteLength":44712,"byteStride":12,"name":"bufferViewFloatVec3"},{"buffer":0,"byteOffset":63672,"byteLength":29808,"byteStride":16,"name":"bufferViewFloatVec4"},{"buffer":0,"byteOffset":93480,"byteLength":14904,"byteStride":8,"name":"bufferViewFloatVec2"}],"buffers":[{"uri":"arm_all_centered.bin","byteLength":108384}],"materials":[{"pbrMetallicRoughness":{"baseColorFactor":[0.0,0.0,0.0,1.0],"metallicFactor":0.0,"roughnessFactor":0.450053632},"emissiveFactor":[0.0,0.0,0.0],"alphaMode":"OPAQUE","name":"lambert1"}]}