{"asset":{"version":"2.0","generator":"babylon.js glTF exporter for maya 2018 v20190805.3"},"scene":0,"scenes":[{"nodes":[0,1,2,3,4,5,6,7,8,9,10,11,12,13,14,15,16,17,18,19,20,21,22],"extensions":{}}],"nodes":[{"mesh":0,"translation":[0.0,0.0,0.0],"rotation":[0.0,0.0,0.0,1.0],"scale":[1.0,1.0,1.0],"name":"hood"},{"mesh":1,"translation":[0.0,0.0,0.0],"rotation":[0.0,0.0,0.0,1.0],"scale":[1.0,1.0,1.0],"name":"mask"},{"mesh":2,"translation":[0.0,0.0,0.0],"rotation":[0.0,0.0,0.0,1.0],"scale":[1.0,1.0,1.0],"name":"eye_LT"},{"mesh":3,"translation":[0.0,0.0,0.0],"rotation":[0.0,0.0,0.0,1.0],"scale":[1.0,1.0,1.0],"name":"eye_RT"},{"mesh":4,"translation":[0.0,0.0,0.0],"rotation":[0.0,0.0,0.0,1.0],"scale":[1.0,1.0,1.0],"name":"neck"},{"mesh":5,"translation":[0.0,0.0,0.0],"rotation":[0.0,0.0,0.0,1.0],"scale":[1.0,1.0,1.0],"name":"armor"},{"mesh":6,"translation":[0.0,0.0,0.0],"rotation":[0.0,0.0,0.0,1.0],"scale":[1.0,1.0,1.0],"name":"shoulder_LT"},{"mesh":7,"translation":[0.0,0.0,0.0],"rotation":[0.0,0.0,0.0,1.0],"scale":[1.0,1.0,1.0],"name":"shoulder_RT"},{"mesh":8,"translation":[0.0,0.0,0.0],"rotation":[0.0,0.0,0.0,1.0],"scale":[1.0,1.0,1.0],"name":"arm_LT"},{"mesh":9,"translation":[0.0,0.0,0.0],"rotation":[0.0,0.0,0.0,1.0],"scale":[1.0,1.0,1.0],"name":"arm_RT"},{"mesh":10,"translation":[0.0,0.0,0.0],"rotation":[0.0,0.0,0.0,1.0],"scale":[1.0,1.0,1.0],"name":"forearm_LT"},{"mesh":11,"translation":[0.0,0.0,0.0],"rotation":[0.0,0.0,0.0,1.0],"scale":[1.0,1.0,1.0],"name":"forearm_RT"},{"mesh":12,"translation":[0.0,0.0,0.0],"rotation":[0.0,0.0,0.0,1.0],"scale":[1.0,1.0,1.0],"name":"gauntlet_LT"},{"mesh":13,"translation":[0.0,0.0,0.0],"rotation":[0.0,0.0,0.0,1.0],"scale":[1.0,1.0,1.0],"name":"gauntlet_RT"},{"mesh":14,"translation":[0.0,0.0,0.0],"rotation":[0.0,0.0,0.0,1.0],"scale":[1.0,1.0,1.0],"name":"pelvis"},{"mesh":15,"translation":[0.0,0.0,0.0],"rotation":[0.0,0.0,0.0,1.0],"scale":[1.0,1.0,1.0],"name":"leg_LT"},{"mesh":16,"translation":[0.0,0.0,0.0],"rotation":[0.0,0.0,0.0,1.0],"scale":[1.0,1.0,1.0],"name":"leg_RT"},{"mesh":17,"translation":[0.0,0.0,0.0],"rotation":[0.0,0.0,0.0,1.0],"scale":[1.0,1.0,1.0],"name":"boot_LT"},{"mesh":18,"translation":[0.0,0.0,0.0],"rotation":[0.0,0.0,0.0,1.0],"scale":[1.0,1.0,1.0],"name":"boot_RT"},{"mesh":19,"translation":[0.0,0.0,0.0],"rotation":[0.0,0.0,0.0,1.0],"scale":[1.0,1.0,1.0],"name":"foot_LT"},{"mesh":20,"translation":[0.0,0.0,0.0],"rotation":[0.0,0.0,0.0,1.0],"scale":[1.0,1.0,1.0],"name":"foot_RT"},{"mesh":21,"translation":[0.0,0.0,0.0],"rotation":[0.0,0.0,0.0,1.0],"scale":[1.0,1.0,1.0],"name":"toes_LT"},{"mesh":22,"translation":[0.0,0.0,0.0],"rotation":[0.0,0.0,0.0,1.0],"scale":[1.0,1.0,1.0],"name":"toes_RT"}],"meshes":[{"primitives":[{"attributes":{"POSITION":1,"NORMAL":2,"TANGENT":3,"TEXCOORD_0":4},"indices":0,"mode":4,"material":0}],"name":"hood"},{"primitives":[{"attributes":{"POSITION":6,"NORMAL":7,"TANGENT":8,"TEXCOORD_0":9},"indices":5,"mode":4,"material":0}],"name":"mask"},{"primitives":[{"attributes":{"POSITION":11,"NORMAL":12,"TANGENT":13,"TEXCOORD_0":14},"indices":10,"mode":4,"material":0}],"name":"eye_LT"},{"primitives":[{"attributes":{"POSITION":16,"NORMAL":17,"TANGENT":18,"TEXCOORD_0":19},"indices":15,"mode":4,"material":0}],"name":"eye_RT"},{"primitives":[{"attributes":{"POSITION":21,"NORMAL":22,"TANGENT":23,"TEXCOORD_0":24},"indices":20,"mode":4,"material":0}],"name":"neck"},{"primitives":[{"attributes":{"POSITION":26,"NORMAL":27,"TANGENT":28,"TEXCOORD_0":29},"indices":25,"mode":4,"material":0}],"name":"armor"},{"primitives":[{"attributes":{"POSITION":31,"NORMAL":32,"TANGENT":33,"TEXCOORD_0":34},"indices":30,"mode":4,"material":0}],"name":"shoulder_LT"},{"primitives":[{"attributes":{"POSITION":36,"NORMAL":37,"TANGENT":38,"TEXCOORD_0":39},"indices":35,"mode":4,"material":0}],"name":"shoulder_RT"},{"primitives":[{"attributes":{"POSITION":41,"NORMAL":42,"TANGENT":43,"TEXCOORD_0":44},"indices":40,"mode":4,"material":0}],"name":"arm_LT"},{"primitives":[{"attributes":{"POSITION":46,"NORMAL":47,"TANGENT":48,"TEXCOORD_0":49},"indices":45,"mode":4,"material":0}],"name":"arm_RT"},{"primitives":[{"attributes":{"POSITION":51,"NORMAL":52,"TANGENT":53,"TEXCOORD_0":54},"indices":50,"mode":4,"material":0}],"name":"forearm_LT"},{"primitives":[{"attributes":{"POSITION":56,"NORMAL":57,"TANGENT":58,"TEXCOORD_0":59},"indices":55,"mode":4,"material":0}],"name":"forearm_RT"},{"primitives":[{"attributes":{"POSITION":61,"NORMAL":62,"TANGENT":63,"TEXCOORD_0":64},"indices":60,"mode":4,"material":0}],"name":"gauntlet_LT"},{"primitives":[{"attributes":{"POSITION":66,"NORMAL":67,"TANGENT":68,"TEXCOORD_0":69},"indices":65,"mode":4,"material":0}],"name":"gauntlet_RT"},{"primitives":[{"attributes":{"POSITION":71,"NORMAL":72,"TANGENT":73,"TEXCOORD_0":74},"indices":70,"mode":4,"material":0}],"name":"pelvis"},{"primitives":[{"attributes":{"POSITION":76,"NORMAL":77,"TANGENT":78,"TEXCOORD_0":79},"indices":75,"mode":4,"material":0}],"name":"leg_LT"},{"primitives":[{"attributes":{"POSITION":81,"NORMAL":82,"TANGENT":83,"TEXCOORD_0":84},"indices":80,"mode":4,"material":0}],"name":"leg_RT"},{"primitives":[{"attributes":{"POSITION":86,"NORMAL":87,"TANGENT":88,"TEXCOORD_0":89},"indices":85,"mode":4,"material":0}],"name":"boot_LT"},{"primitives":[{"attributes":{"POSITION":91,"NORMAL":92,"TANGENT":93,"TEXCOORD_0":94},"indices":90,"mode":4,"material":0}],"name":"boot_RT"},{"primitives":[{"attributes":{"POSITION":96,"NORMAL":97,"TANGENT":98,"TEXCOORD_0":99},"indices":95,"mode":4,"material":0}],"name":"foot_LT"},{"primitives":[{"attributes":{"POSITION":101,"NORMAL":102,"TANGENT":103,"TEXCOORD_0":104},"indices":100,"mode":4,"material":0}],"name":"foot_RT"},{"primitives":[{"attributes":{"POSITION":106,"NORMAL":107,"TANGENT":108,"TEXCOORD_0":109},"indices":105,"mode":4,"material":0}],"name":"toes_LT"},{"primitives":[{"attributes":{"POSITION":111,"NORMAL":112,"TANGENT":113,"TEXCOORD_0":114},"indices":110,"mode":4,"material":0}],"name":"toes_RT"}],"accessors":[{"bufferView":0,"componentType":5123,"count":22608,"type":"SCALAR","name":"accessorIndices"},{"bufferView":1,"componentType":5126,"count":22608,"max":[0.494222164,0.6474736,0.471325278],"min":[-0.493327081,-0.6407745,-0.5278398],"type":"VEC3","name":"accessorPositions"},{"bufferView":1,"byteOffset":271296,"componentType":5126,"count":22608,"type":"VEC3","name":"accessorNormals"},{"bufferView":2,"componentType":5126,"count":22608,"type":"VEC4","name":"accessorTangents"},{"bufferView":3,"componentType":5126,"count":22608,"type":"VEC2","name":"accessorUVs"},{"bufferView":0,"byteOffset":45216,"componentType":5123,"count":28080,"type":"SCALAR","name":"accessorIndices"},{"bufferView":1,"byteOffset":542592,"componentType":5126,"count":28080,"max":[0.26430124,0.613155365,0.56000495],"min":[-0.263406157,-0.202161744,-0.225542009],"type":"VEC3","name":"accessorPositions"},{"bufferView":1,"byteOffset":879552,"componentType":5126,"count":28080,"type":"VEC3","name":"accessorNormals"},{"bufferView":2,"byteOffset":361728,"componentType":5126,"count":28080,"type":"VEC4","name":"accessorTangents"},{"bufferView":3,"byteOffset":180864,"componentType":5126,"count":28080,"type":"VEC2","name":"accessorUVs"},{"bufferView":0,"byteOffset":101376,"componentType":5123,"count":13680,"type":"SCALAR","name":"accessorIndices"},{"bufferView":1,"byteOffset":1216512,"componentType":5126,"count":13680,"max":[0.1936732,0.293827146,0.44949314],"min":[0.0453982837,0.1455663,0.299953282],"type":"VEC3","name":"accessorPositions"},{"bufferView":1,"byteOffset":1380672,"componentType":5126,"count":13680,"type":"VEC3","name":"accessorNormals"},{"bufferView":2,"byteOffset":811008,"componentType":5126,"count":13680,"type":"VEC4","name":"accessorTangents"},{"bufferView":3,"byteOffset":405504,"componentType":5126,"count":13680,"type":"VEC2","name":"accessorUVs"},{"bufferView":0,"byteOffset":128736,"componentType":5123,"count":13680,"type":"SCALAR","name":"accessorIndices"},{"bufferView":1,"byteOffset":1544832,"componentType":5126,"count":13680,"max":[-0.04432685,0.293827146,0.44949308],"min":[-0.192601666,0.1455663,0.299953341],"type":"VEC3","name":"accessorPositions"},{"bufferView":1,"byteOffset":1708992,"componentType":5126,"count":13680,"type":"VEC3","name":"accessorNormals"},{"bufferView":2,"byteOffset":1029888,"componentType":5126,"count":13680,"type":"VEC4","name":"accessorTangents"},{"bufferView":3,"byteOffset":514944,"componentType":5126,"count":13680,"type":"VEC2","name":"accessorUVs"},{"bufferView":0,"byteOffset":156096,"componentType":5123,"count":6480,"type":"SCALAR","name":"accessorIndices"},{"bufferView":1,"byteOffset":1873152,"componentType":5126,"count":6480,"max":[0.417531967,0.7203519,0.339101255],"min":[-0.4170693,-0.0381615162,-0.4046964],"type":"VEC3","name":"accessorPositions"},{"bufferView":1,"byteOffset":1950912,"componentType":5126,"count":6480,"type":"VEC3","name":"accessorNormals"},{"bufferView":2,"byteOffset":1248768,"componentType":5126,"count":6480,"type":"VEC4","name":"accessorTangents"},{"bufferView":3,"byteOffset":624384,"componentType":5126,"count":6480,"type":"VEC2","name":"accessorUVs"},{"bufferView":0,"byteOffset":169056,"componentType":5123,"count":37260,"type":"SCALAR","name":"accessorIndices"},{"bufferView":1,"byteOffset":2028672,"componentType":5126,"count":37260,"max":[1.09867835,2.21073771,0.5555067],"min":[-1.10114741,0.0220141411,-0.549577355],"type":"VEC3","name":"accessorPositions"},{"bufferView":1,"byteOffset":2475792,"componentType":5126,"count":37260,"type":"VEC3","name":"accessorNormals"},{"bufferView":2,"byteOffset":1352448,"componentType":5126,"count":37260,"type":"VEC4","name":"accessorTangents"},{"bufferView":3,"byteOffset":676224,"componentType":5126,"count":37260,"type":"VEC2","name":"accessorUVs"},{"bufferView":0,"byteOffset":243576,"componentType":5123,"count":8352,"type":"SCALAR","name":"accessorIndices"},{"bufferView":1,"byteOffset":2922912,"componentType":5126,"count":8352,"max":[0.2772395,0.19921717,0.313003957],"min":[-0.226438329,-0.08458567,-0.308311522],"type":"VEC3","name":"accessorPositions"},{"bufferView":1,"byteOffset":3023136,"componentType":5126,"count":8352,"type":"VEC3","name":"accessorNormals"},{"bufferView":2,"byteOffset":1948608,"componentType":5126,"count":8352,"type":"VEC4","name":"accessorTangents"},{"bufferView":3,"byteOffset":974304,"componentType":5126,"count":8352,"type":"VEC2","name":"accessorUVs"},{"bufferView":0,"byteOffset":260280,"componentType":5123,"count":8352,"type":"SCALAR","name":"accessorIndices"},{"bufferView":1,"byteOffset":3123360,"componentType":5126,"count":8352,"max":[0.226438329,0.19921717,0.313003957],"min":[-0.277239531,-0.08458567,-0.308311522],"type":"VEC3","name":"accessorPositions"},{"bufferView":1,"byteOffset":3223584,"componentType":5126,"count":8352,"type":"VEC3","name":"accessorNormals"},{"bufferView":2,"byteOffset":2082240,"componentType":5126,"count":8352,"type":"VEC4","name":"accessorTangents"},{"bufferView":3,"byteOffset":1041120,"componentType":5126,"count":8352,"type":"VEC2","name":"accessorUVs"},{"bufferView":0,"byteOffset":276984,"componentType":5123,"count":5940,"type":"SCALAR","name":"accessorIndices"},{"bufferView":1,"byteOffset":3323808,"componentType":5126,"count":5940,"max":[0.614408731,0.198607281,0.2879255],"min":[-0.239099458,-0.8575614,-0.219345614],"type":"VEC3","name":"accessorPositions"},{"bufferView":1,"byteOffset":3395088,"componentType":5126,"count":5940,"type":"VEC3","name":"accessorNormals"},{"bufferView":2,"byteOffset":2215872,"componentType":5126,"count":5940,"type":"VEC4","name":"accessorTangents"},{"bufferView":3,"byteOffset":1107936,"componentType":5126,"count":5940,"type":"VEC2","name":"accessorUVs"},{"bufferView":0,"byteOffset":288864,"componentType":5123,"count":5940,"type":"SCALAR","name":"accessorIndices"},{"bufferView":1,"byteOffset":3466368,"componentType":5126,"count":5940,"max":[0.239276543,0.1989635,0.288117141],"min":[-0.614231646,-0.8572052,-0.21915406],"type":"VEC3","name":"accessorPositions"},{"bufferView":1,"byteOffset":3537648,"componentType":5126,"count":5940,"type":"VEC3","name":"accessorNormals"},{"bufferView":2,"byteOffset":2310912,"componentType":5126,"count":5940,"type":"VEC4","name":"accessorTangents"},{"bufferView":3,"byteOffset":1155456,"componentType":5126,"count":5940,"type":"VEC2","name":"accessorUVs"},{"bufferView":0,"byteOffset":300744,"componentType":5123,"count":19764,"type":"SCALAR","name":"accessorIndices"},{"bufferView":1,"byteOffset":3608928,"componentType":5126,"count":19764,"max":[0.7011756,0.139137641,0.2609521],"min":[-0.13628605,-1.35458815,-0.153041288],"type":"VEC3","name":"accessorPositions"},{"bufferView":1,"byteOffset":3846096,"componentType":5126,"count":19764,"type":"VEC3","name":"accessorNormals"},{"bufferView":2,"byteOffset":2405952,"componentType":5126,"count":19764,"type":"VEC4","name":"accessorTangents"},{"bufferView":3,"byteOffset":1202976,"componentType":5126,"count":19764,"type":"VEC2","name":"accessorUVs"},{"bufferView":0,"byteOffset":340272,"componentType":5123,"count":19764,"type":"SCALAR","name":"accessorIndices"},{"bufferView":1,"byteOffset":4083264,"componentType":5126,"count":19764,"max":[0.136256725,0.13962163,0.260781556],"min":[-0.701204956,-1.35410416,-0.1532118],"type":"VEC3","name":"accessorPositions"},{"bufferView":1,"byteOffset":4320432,"componentType":5126,"count":19764,"type":"VEC3","name":"accessorNormals"},{"bufferView":2,"byteOffset":2722176,"componentType":5126,"count":19764,"type":"VEC4","name":"accessorTangents"},{"bufferView":3,"byteOffset":1361088,"componentType":5126,"count":19764,"type":"VEC2","name":"accessorUVs"},{"bufferView":0,"byteOffset":379800,"componentType":5123,"count":11376,"type":"SCALAR","name":"accessorIndices"},{"bufferView":1,"byteOffset":4557600,"componentType":5126,"count":11376,"max":[0.5128699,0.05802902,0.171362415],"min":[-0.113940388,-0.7041772,-0.16094853],"type":"VEC3","name":"accessorPositions"},{"bufferView":1,"byteOffset":4694112,"componentType":5126,"count":11376,"type":"VEC3","name":"accessorNormals"},{"bufferView":2,"byteOffset":3038400,"componentType":5126,"count":11376,"type":"VEC4","name":"accessorTangents"},{"bufferView":3,"byteOffset":1519200,"componentType":5126,"count":11376,"type":"VEC2","name":"accessorUVs"},{"bufferView":0,"byteOffset":402552,"componentType":5123,"count":11376,"type":"SCALAR","name":"accessorIndices"},{"bufferView":1,"byteOffset":4830624,"componentType":5126,"count":11376,"max":[0.113940388,0.05802902,0.1713624],"min":[-0.5128699,-0.7041772,-0.160948545],"type":"VEC3","name":"accessorPositions"},{"bufferView":1,"byteOffset":4967136,"componentType":5126,"count":11376,"type":"VEC3","name":"accessorNormals"},{"bufferView":2,"byteOffset":3220416,"componentType":5126,"count":11376,"type":"VEC4","name":"accessorTangents"},{"bufferView":3,"byteOffset":1610208,"componentType":5126,"count":11376,"type":"VEC2","name":"accessorUVs"},{"bufferView":0,"byteOffset":425304,"componentType":5123,"count":14292,"type":"SCALAR","name":"accessorIndices"},{"bufferView":1,"byteOffset":5103648,"componentType":5126,"count":14292,"max":[0.5705942,0.499974579,0.4501773],"min":[-0.5705942,-0.476515949,-0.449795425],"type":"VEC3","name":"accessorPositions"},{"bufferView":1,"byteOffset":5275152,"componentType":5126,"count":14292,"type":"VEC3","name":"accessorNormals"},{"bufferView":2,"byteOffset":3402432,"componentType":5126,"count":14292,"type":"VEC4","name":"accessorTangents"},{"bufferView":3,"byteOffset":1701216,"componentType":5126,"count":14292,"type":"VEC2","name":"accessorUVs"},{"bufferView":0,"byteOffset":453888,"componentType":5123,"count":6984,"type":"SCALAR","name":"accessorIndices"},{"bufferView":1,"byteOffset":5446656,"componentType":5126,"count":6984,"max":[0.3469353,0.100385189,0.367364049],"min":[-0.302223623,-1.66371322,-0.406160861],"type":"VEC3","name":"accessorPositions"},{"bufferView":1,"byteOffset":5530464,"componentType":5126,"count":6984,"type":"VEC3","name":"accessorNormals"},{"bufferView":2,"byteOffset":3631104,"componentType":5126,"count":6984,"type":"VEC4","name":"accessorTangents"},{"bufferView":3,"byteOffset":1815552,"componentType":5126,"count":6984,"type":"VEC2","name":"accessorUVs"},{"bufferView":0,"byteOffset":467856,"componentType":5123,"count":6984,"type":"SCALAR","name":"accessorIndices"},{"bufferView":1,"byteOffset":5614272,"componentType":5126,"count":6984,"max":[0.302223623,0.100385427,0.367364049],"min":[-0.346935272,-1.66371286,-0.406160831],"type":"VEC3","name":"accessorPositions"},{"bufferView":1,"byteOffset":5698080,"componentType":5126,"count":6984,"type":"VEC3","name":"accessorNormals"},{"bufferView":2,"byteOffset":3742848,"componentType":5126,"count":6984,"type":"VEC4","name":"accessorTangents"},{"bufferView":3,"byteOffset":1871424,"componentType":5126,"count":6984,"type":"VEC2","name":"accessorUVs"},{"bufferView":0,"byteOffset":481824,"componentType":5123,"count":8316,"type":"SCALAR","name":"accessorIndices"},{"bufferView":1,"byteOffset":5781888,"componentType":5126,"count":8316,"max":[0.2292666,0.06589131,0.254588783],"min":[-0.228029549,-1.57243335,-0.354979247],"type":"VEC3","name":"accessorPositions"},{"bufferView":1,"byteOffset":5881680,"componentType":5126,"count":8316,"type":"VEC3","name":"accessorNormals"},{"bufferView":2,"byteOffset":3854592,"componentType":5126,"count":8316,"type":"VEC4","name":"accessorTangents"},{"bufferView":3,"byteOffset":1927296,"componentType":5126,"count":8316,"type":"VEC2","name":"accessorUVs"},{"bufferView":0,"byteOffset":498456,"componentType":5123,"count":8316,"type":"SCALAR","name":"accessorIndices"},{"bufferView":1,"byteOffset":5981472,"componentType":5126,"count":8316,"max":[0.228464037,0.06571071,0.2541767],"min":[-0.228832111,-1.572614,-0.3553913],"type":"VEC3","name":"accessorPositions"},{"bufferView":1,"byteOffset":6081264,"componentType":5126,"count":8316,"type":"VEC3","name":"accessorNormals"},{"bufferView":2,"byteOffset":3987648,"componentType":5126,"count":8316,"type":"VEC4","name":"accessorTangents"},{"bufferView":3,"byteOffset":1993824,"componentType":5126,"count":8316,"type":"VEC2","name":"accessorUVs"},{"bufferView":0,"byteOffset":515088,"componentType":5123,"count":8604,"type":"SCALAR","name":"accessorIndices"},{"bufferView":1,"byteOffset":6181056,"componentType":5126,"count":8604,"max":[0.19678013,0.0112108495,0.3992131],"min":[-0.193230718,-0.363646984,-0.216941983],"type":"VEC3","name":"accessorPositions"},{"bufferView":1,"byteOffset":6284304,"componentType":5126,"count":8604,"type":"VEC3","name":"accessorNormals"},{"bufferView":2,"byteOffset":4120704,"componentType":5126,"count":8604,"type":"VEC4","name":"accessorTangents"},{"bufferView":3,"byteOffset":2060352,"componentType":5126,"count":8604,"type":"VEC2","name":"accessorUVs"},{"bufferView":0,"byteOffset":532296,"componentType":5123,"count":8604,"type":"SCALAR","name":"accessorIndices"},{"bufferView":1,"byteOffset":6387552,"componentType":5126,"count":8604,"max":[0.192880258,0.0109034982,0.398937881],"min":[-0.19713062,-0.363954335,-0.217217177],"type":"VEC3","name":"accessorPositions"},{"bufferView":1,"byteOffset":6490800,"componentType":5126,"count":8604,"type":"VEC3","name":"accessorNormals"},{"bufferView":2,"byteOffset":4258368,"componentType":5126,"count":8604,"type":"VEC4","name":"accessorTangents"},{"bufferView":3,"byteOffset":2129184,"componentType":5126,"count":8604,"type":"VEC2","name":"accessorUVs"},{"bufferView":0,"byteOffset":549504,"componentType":5123,"count":4212,"type":"SCALAR","name":"accessorIndices"},{"bufferView":1,"byteOffset":6594048,"componentType":5126,"count":4212,"max":[0.1680427,0.116690353,0.4153937],"min":[-0.2169813,-0.07485248,-0.05337852],"type":"VEC3","name":"accessorPositions"},{"bufferView":1,"byteOffset":6644592,"componentType":5126,"count":4212,"type":"VEC3","name":"accessorNormals"},{"bufferView":2,"byteOffset":4396032,"componentType":5126,"count":4212,"type":"VEC4","name":"accessorTangents"},{"bufferView":3,"byteOffset":2198016,"componentType":5126,"count":4212,"type":"VEC2","name":"accessorUVs"},{"bufferView":0,"byteOffset":557928,"componentType":5123,"count":4212,"type":"SCALAR","name":"accessorIndices"},{"bufferView":1,"byteOffset":6695136,"componentType":5126,"count":4212,"max":[0.216651142,0.117392659,0.41353026],"min":[-0.168372869,-0.0741501749,-0.05524195],"type":"VEC3","name":"accessorPositions"},{"bufferView":1,"byteOffset":6745680,"componentType":5126,"count":4212,"type":"VEC3","name":"accessorNormals"},{"bufferView":2,"byteOffset":4463424,"componentType":5126,"count":4212,"type":"VEC4","name":"accessorTangents"},{"bufferView":3,"byteOffset":2231712,"componentType":5126,"count":4212,"type":"VEC2","name":"accessorUVs"}],"bufferViews":[{"buffer":0,"byteLength":566352,"name":"bufferViewScalar"},{"buffer":0,"byteOffset":566352,"byteLength":6796224,"byteStride":12,"name":"bufferViewFloatVec3"},{"buffer":0,"byteOffset":7362576,"byteLength":4530816,"byteStride":16,"name":"bufferViewFloatVec4"},{"buffer":0,"byteOffset":11893392,"byteLength":2265408,"byteStride":8,"name":"bufferViewFloatVec2"}],"buffers":[{"uri":"character_hp.bin","byteLength":14158800}],"materials":[{"pbrMetallicRoughness":{"baseColorFactor":[0.5,0.5,0.5,1.0],"metallicFactor":0.0,"roughnessFactor":0.450053632},"emissiveFactor":[0.0,0.0,0.0],"alphaMode":"OPAQUE","name":"grid"}]}