{
	"asset":{
		"generator":"Khronos glTF Blender I/O v4.3.47",
		"version":"2.0"
	},
	"extensionsUsed":[
		"KHR_materials_transmission",
		"KHR_materials_specular",
		"KHR_materials_ior",
		"KHR_texture_transform"
	],
	"extensionsRequired":[
		"KHR_texture_transform"
	],
	"scene":0,
	"scenes":[
		{
			"name":"Scene",
			"nodes":[
				0
			]
		}
	],
	"nodes":[
		{
			"mesh":0,
			"name":"maze_textured",
			"rotation":[
				0.7071068286895752,
				0,
				0,
				0.7071068286895752
			]
		}
	],
	"materials":[
		{
			"doubleSided":true,
			"extensions":{
				"KHR_materials_transmission":{
					"transmissionFactor":1
				},
				"KHR_materials_specular":{
					"specularFactor":0
				},
				"KHR_materials_ior":{
					"ior":1
				}
			},
			"name":"lambert4SG",
			"pbrMetallicRoughness":{
				"baseColorTexture":{
					"extensions":{
						"KHR_texture_transform":{
							"offset":[
								0,
								-15
							],
							"scale":[
								16,
								16
							]
						}
					},
					"index":0
				},
				"metallicFactor":0
			}
		},
		{
			"doubleSided":true,
			"extensions":{
				"KHR_materials_transmission":{
					"transmissionFactor":1
				},
				"KHR_materials_specular":{
					"specularFactor":0
				},
				"KHR_materials_ior":{
					"ior":1
				}
			},
			"name":"lambert3SG",
			"pbrMetallicRoughness":{
				"baseColorTexture":{
					"index":1
				},
				"metallicFactor":0.05999999865889549
			}
		},
		{
			"doubleSided":true,
			"extensions":{
				"KHR_materials_transmission":{
					"transmissionFactor":1
				},
				"KHR_materials_specular":{
					"specularFactor":0
				},
				"KHR_materials_ior":{
					"ior":1
				}
			},
			"name":"lambert5SG",
			"pbrMetallicRoughness":{
				"baseColorTexture":{
					"index":2
				},
				"metallicFactor":0
			}
		},
		{
			"doubleSided":true,
			"extensions":{
				"KHR_materials_transmission":{
					"transmissionFactor":1
				},
				"KHR_materials_specular":{
					"specularFactor":0
				},
				"KHR_materials_ior":{
					"ior":1
				}
			},
			"name":"lambert6SG",
			"pbrMetallicRoughness":{
				"baseColorTexture":{
					"index":3
				},
				"metallicFactor":0
			}
		}
	],
	"meshes":[
		{
			"name":"maze_textured",
			"primitives":[
				{
					"attributes":{
						"POSITION":0,
						"NORMAL":1,
						"TEXCOORD_0":2,
						"COLOR_0":3,
						"COLOR_1":4
					},
					"indices":5,
					"material":0
				},
				{
					"attributes":{
						"POSITION":6,
						"NORMAL":7,
						"TEXCOORD_0":8,
						"COLOR_0":9,
						"COLOR_1":10
					},
					"indices":11,
					"material":1
				},
				{
					"attributes":{
						"POSITION":12,
						"NORMAL":13,
						"TEXCOORD_0":14,
						"COLOR_0":15,
						"COLOR_1":16
					},
					"indices":17,
					"material":2
				},
				{
					"attributes":{
						"POSITION":18,
						"NORMAL":19,
						"TEXCOORD_0":20,
						"COLOR_0":21,
						"COLOR_1":22
					},
					"indices":23,
					"material":3
				}
			]
		}
	],
	"textures":[
		{
			"sampler":0,
			"source":0
		},
		{
			"sampler":0,
			"source":1
		},
		{
			"sampler":0,
			"source":2
		},
		{
			"sampler":0,
			"source":3
		}
	],
	"images":[
		{
			"mimeType":"image/jpeg",
			"name":"pavement_color_250",
			"uri":"pavement_color_250.jpg"
		},
		{
			"mimeType":"image/jpeg",
			"name":"ceiling_color_250",
			"uri":"ceiling_color_250.jpg"
		},
		{
			"mimeType":"image/jpeg",
			"name":"stone_color_250",
			"uri":"stone_color_250.jpg"
		},
		{
			"mimeType":"image/jpeg",
			"name":"column_color_250",
			"uri":"column_color_250.jpg"
		}
	],
	"accessors":[
		{
			"bufferView":0,
			"componentType":5126,
			"count":121,
			"max":[
				81.5999984741211,
				81.5999984741211,
				0
			],
			"min":[
				-81.5999984741211,
				-81.5999984741211,
				0
			],
			"type":"VEC3"
		},
		{
			"bufferView":1,
			"componentType":5126,
			"count":121,
			"type":"VEC3"
		},
		{
			"bufferView":2,
			"componentType":5126,
			"count":121,
			"type":"VEC2"
		},
		{
			"bufferView":3,
			"componentType":5121,
			"count":121,
			"normalized":true,
			"type":"VEC4"
		},
		{
			"bufferView":4,
			"componentType":5123,
			"count":121,
			"normalized":true,
			"type":"VEC4"
		},
		{
			"bufferView":5,
			"componentType":5123,
			"count":600,
			"type":"SCALAR"
		},
		{
			"bufferView":6,
			"componentType":5126,
			"count":49447,
			"max":[
				81.59909057617188,
				81.57415771484375,
				-10.714680671691895
			],
			"min":[
				-81.61621856689453,
				-81.55459594726562,
				-15.832179069519043
			],
			"type":"VEC3"
		},
		{
			"bufferView":7,
			"componentType":5126,
			"count":49447,
			"type":"VEC3"
		},
		{
			"bufferView":8,
			"componentType":5126,
			"count":49447,
			"type":"VEC2"
		},
		{
			"bufferView":9,
			"componentType":5121,
			"count":49447,
			"normalized":true,
			"type":"VEC4"
		},
		{
			"bufferView":10,
			"componentType":5123,
			"count":49447,
			"normalized":true,
			"type":"VEC4"
		},
		{
			"bufferView":11,
			"componentType":5123,
			"count":188160,
			"type":"SCALAR"
		},
		{
			"bufferView":12,
			"componentType":5126,
			"count":99999,
			"max":[
				82.05615997314453,
				82.0312271118164,
				0
			],
			"min":[
				-82.07328796386719,
				-82.01165771484375,
				-10.748348236083984
			],
			"type":"VEC3"
		},
		{
			"bufferView":13,
			"componentType":5126,
			"count":99999,
			"type":"VEC3"
		},
		{
			"bufferView":14,
			"componentType":5126,
			"count":99999,
			"type":"VEC2"
		},
		{
			"bufferView":15,
			"componentType":5121,
			"count":99999,
			"normalized":true,
			"type":"VEC4"
		},
		{
			"bufferView":16,
			"componentType":5123,
			"count":99999,
			"normalized":true,
			"type":"VEC4"
		},
		{
			"bufferView":17,
			"componentType":5125,
			"count":413004,
			"type":"SCALAR"
		},
		{
			"bufferView":18,
			"componentType":5126,
			"count":97185,
			"max":[
				83.56588745117188,
				83.44383239746094,
				0
			],
			"min":[
				-83.58301544189453,
				-83.42426300048828,
				-10.753061294555664
			],
			"type":"VEC3"
		},
		{
			"bufferView":19,
			"componentType":5126,
			"count":97185,
			"type":"VEC3"
		},
		{
			"bufferView":20,
			"componentType":5126,
			"count":97185,
			"type":"VEC2"
		},
		{
			"bufferView":21,
			"componentType":5121,
			"count":97185,
			"normalized":true,
			"type":"VEC4"
		},
		{
			"bufferView":22,
			"componentType":5123,
			"count":97185,
			"normalized":true,
			"type":"VEC4"
		},
		{
			"bufferView":23,
			"componentType":5125,
			"count":427500,
			"type":"SCALAR"
		}
	],
	"bufferViews":[
		{
			"buffer":0,
			"byteLength":1452,
			"byteOffset":0,
			"target":34962
		},
		{
			"buffer":0,
			"byteLength":1452,
			"byteOffset":1452,
			"target":34962
		},
		{
			"buffer":0,
			"byteLength":968,
			"byteOffset":2904,
			"target":34962
		},
		{
			"buffer":0,
			"byteLength":484,
			"byteOffset":3872,
			"target":34962
		},
		{
			"buffer":0,
			"byteLength":968,
			"byteOffset":4356,
			"target":34962
		},
		{
			"buffer":0,
			"byteLength":1200,
			"byteOffset":5324,
			"target":34963
		},
		{
			"buffer":0,
			"byteLength":593364,
			"byteOffset":6524,
			"target":34962
		},
		{
			"buffer":0,
			"byteLength":593364,
			"byteOffset":599888,
			"target":34962
		},
		{
			"buffer":0,
			"byteLength":395576,
			"byteOffset":1193252,
			"target":34962
		},
		{
			"buffer":0,
			"byteLength":197788,
			"byteOffset":1588828,
			"target":34962
		},
		{
			"buffer":0,
			"byteLength":395576,
			"byteOffset":1786616,
			"target":34962
		},
		{
			"buffer":0,
			"byteLength":376320,
			"byteOffset":2182192,
			"target":34963
		},
		{
			"buffer":0,
			"byteLength":1199988,
			"byteOffset":2558512,
			"target":34962
		},
		{
			"buffer":0,
			"byteLength":1199988,
			"byteOffset":3758500,
			"target":34962
		},
		{
			"buffer":0,
			"byteLength":799992,
			"byteOffset":4958488,
			"target":34962
		},
		{
			"buffer":0,
			"byteLength":399996,
			"byteOffset":5758480,
			"target":34962
		},
		{
			"buffer":0,
			"byteLength":799992,
			"byteOffset":6158476,
			"target":34962
		},
		{
			"buffer":0,
			"byteLength":1652016,
			"byteOffset":6958468,
			"target":34963
		},
		{
			"buffer":0,
			"byteLength":1166220,
			"byteOffset":8610484,
			"target":34962
		},
		{
			"buffer":0,
			"byteLength":1166220,
			"byteOffset":9776704,
			"target":34962
		},
		{
			"buffer":0,
			"byteLength":777480,
			"byteOffset":10942924,
			"target":34962
		},
		{
			"buffer":0,
			"byteLength":388740,
			"byteOffset":11720404,
			"target":34962
		},
		{
			"buffer":0,
			"byteLength":777480,
			"byteOffset":12109144,
			"target":34962
		},
		{
			"buffer":0,
			"byteLength":1710000,
			"byteOffset":12886624,
			"target":34963
		}
	],
	"samplers":[
		{
			"magFilter":9729,
			"minFilter":9987
		}
	],
	"buffers":[
		{
			"byteLength":14596624,
			"uri":"maze_textured_2.bin"
		}
	]
}
