{"asset":{"version":"2.0","generator":"babylon.js glTF exporter for maya 2018 v20190805.3"},"scene":0,"scenes":[{"nodes":[0,1,2,3,4,5,6,7,8,9,10,11,12,13,14,15,16,17,18,19,20,21,22],"extensions":{}}],"nodes":[{"mesh":0,"translation":[0.0,0.0,0.0],"rotation":[0.0,0.0,0.0,1.0],"scale":[1.0,1.0,1.0],"name":"hood"},{"mesh":1,"translation":[0.0,0.0,0.0],"rotation":[0.0,0.0,0.0,1.0],"scale":[1.0,1.0,1.0],"name":"mask"},{"mesh":2,"translation":[0.0,0.0,0.0],"rotation":[0.0,0.0,0.0,1.0],"scale":[1.0,1.0,1.0],"name":"eye_LT"},{"mesh":3,"translation":[0.0,0.0,0.0],"rotation":[0.0,0.0,0.0,1.0],"scale":[1.0,1.0,1.0],"name":"eye_RT"},{"mesh":4,"translation":[0.0,0.0,0.0],"rotation":[0.0,0.0,0.0,1.0],"scale":[1.0,1.0,1.0],"name":"neck"},{"mesh":5,"translation":[0.0,0.0,0.0],"rotation":[0.0,0.0,0.0,1.0],"scale":[1.0,1.0,1.0],"name":"armor"},{"mesh":6,"translation":[0.0,0.0,0.0],"rotation":[0.0,0.0,0.0,1.0],"scale":[1.0,1.0,1.0],"name":"shoulder_LT"},{"mesh":7,"translation":[0.0,0.0,0.0],"rotation":[0.0,0.0,0.0,1.0],"scale":[1.0,1.0,1.0],"name":"shoulder_RT"},{"mesh":8,"translation":[0.0,0.0,0.0],"rotation":[0.0,0.0,0.0,1.0],"scale":[1.0,1.0,1.0],"name":"arm_LT"},{"mesh":9,"translation":[0.0,0.0,0.0],"rotation":[0.0,0.0,0.0,1.0],"scale":[1.0,1.0,1.0],"name":"arm_RT"},{"mesh":10,"translation":[0.0,0.0,0.0],"rotation":[0.0,0.0,0.0,1.0],"scale":[1.0,1.0,1.0],"name":"forearm_LT"},{"mesh":11,"translation":[0.0,0.0,0.0],"rotation":[0.0,0.0,0.0,1.0],"scale":[1.0,1.0,1.0],"name":"forearm_RT"},{"mesh":12,"translation":[0.0,0.0,0.0],"rotation":[0.0,0.0,0.0,1.0],"scale":[1.0,1.0,1.0],"name":"gauntlet_LT"},{"mesh":13,"translation":[0.0,0.0,0.0],"rotation":[0.0,0.0,0.0,1.0],"scale":[1.0,1.0,1.0],"name":"gauntlet_RT"},{"mesh":14,"translation":[0.0,0.0,0.0],"rotation":[0.0,0.0,0.0,1.0],"scale":[1.0,1.0,1.0],"name":"pelvis"},{"mesh":15,"translation":[0.0,0.0,0.0],"rotation":[0.0,0.0,0.0,1.0],"scale":[1.0,1.0,1.0],"name":"leg_LT"},{"mesh":16,"translation":[0.0,0.0,0.0],"rotation":[0.0,0.0,0.0,1.0],"scale":[1.0,1.0,1.0],"name":"leg_RT"},{"mesh":17,"translation":[0.0,0.0,0.0],"rotation":[0.0,0.0,0.0,1.0],"scale":[1.0,1.0,1.0],"name":"boot_LT"},{"mesh":18,"translation":[0.0,0.0,0.0],"rotation":[0.0,0.0,0.0,1.0],"scale":[1.0,1.0,1.0],"name":"boot_RT"},{"mesh":19,"translation":[0.0,0.0,0.0],"rotation":[0.0,0.0,0.0,1.0],"scale":[1.0,1.0,1.0],"name":"foot_LT"},{"mesh":20,"translation":[0.0,0.0,0.0],"rotation":[0.0,0.0,0.0,1.0],"scale":[1.0,1.0,1.0],"name":"foot_RT"},{"mesh":21,"translation":[0.0,0.0,0.0],"rotation":[0.0,0.0,0.0,1.0],"scale":[1.0,1.0,1.0],"name":"toes_LT"},{"mesh":22,"translation":[0.0,0.0,0.0],"rotation":[0.0,0.0,0.0,1.0],"scale":[1.0,1.0,1.0],"name":"toes_RT"}],"meshes":[{"primitives":[{"attributes":{"POSITION":1,"NORMAL":2,"TANGENT":3,"TEXCOORD_0":4},"indices":0,"mode":4,"material":0}],"name":"hood"},{"primitives":[{"attributes":{"POSITION":6,"NORMAL":7,"TANGENT":8,"TEXCOORD_0":9},"indices":5,"mode":4,"material":0}],"name":"mask"},{"primitives":[{"attributes":{"POSITION":11,"NORMAL":12,"TANGENT":13,"TEXCOORD_0":14},"indices":10,"mode":4,"material":0}],"name":"eye_LT"},{"primitives":[{"attributes":{"POSITION":16,"NORMAL":17,"TANGENT":18,"TEXCOORD_0":19},"indices":15,"mode":4,"material":0}],"name":"eye_RT"},{"primitives":[{"attributes":{"POSITION":21,"NORMAL":22,"TANGENT":23,"TEXCOORD_0":24},"indices":20,"mode":4,"material":0}],"name":"neck"},{"primitives":[{"attributes":{"POSITION":26,"NORMAL":27,"TANGENT":28,"TEXCOORD_0":29},"indices":25,"mode":4,"material":0}],"name":"armor"},{"primitives":[{"attributes":{"POSITION":31,"NORMAL":32,"TANGENT":33,"TEXCOORD_0":34},"indices":30,"mode":4,"material":0}],"name":"shoulder_LT"},{"primitives":[{"attributes":{"POSITION":36,"NORMAL":37,"TANGENT":38,"TEXCOORD_0":39},"indices":35,"mode":4,"material":0}],"name":"shoulder_RT"},{"primitives":[{"attributes":{"POSITION":41,"NORMAL":42,"TANGENT":43,"TEXCOORD_0":44},"indices":40,"mode":4,"material":0}],"name":"arm_LT"},{"primitives":[{"attributes":{"POSITION":46,"NORMAL":47,"TANGENT":48,"TEXCOORD_0":49},"indices":45,"mode":4,"material":0}],"name":"arm_RT"},{"primitives":[{"attributes":{"POSITION":51,"NORMAL":52,"TANGENT":53,"TEXCOORD_0":54},"indices":50,"mode":4,"material":0}],"name":"forearm_LT"},{"primitives":[{"attributes":{"POSITION":56,"NORMAL":57,"TANGENT":58,"TEXCOORD_0":59},"indices":55,"mode":4,"material":0}],"name":"forearm_RT"},{"primitives":[{"attributes":{"POSITION":61,"NORMAL":62,"TANGENT":63,"TEXCOORD_0":64},"indices":60,"mode":4,"material":0}],"name":"gauntlet_LT"},{"primitives":[{"attributes":{"POSITION":66,"NORMAL":67,"TANGENT":68,"TEXCOORD_0":69},"indices":65,"mode":4,"material":0}],"name":"gauntlet_RT"},{"primitives":[{"attributes":{"POSITION":71,"NORMAL":72,"TANGENT":73,"TEXCOORD_0":74},"indices":70,"mode":4,"material":0}],"name":"pelvis"},{"primitives":[{"attributes":{"POSITION":76,"NORMAL":77,"TANGENT":78,"TEXCOORD_0":79},"indices":75,"mode":4,"material":0}],"name":"leg_LT"},{"primitives":[{"attributes":{"POSITION":81,"NORMAL":82,"TANGENT":83,"TEXCOORD_0":84},"indices":80,"mode":4,"material":0}],"name":"leg_RT"},{"primitives":[{"attributes":{"POSITION":86,"NORMAL":87,"TANGENT":88,"TEXCOORD_0":89},"indices":85,"mode":4,"material":0}],"name":"boot_LT"},{"primitives":[{"attributes":{"POSITION":91,"NORMAL":92,"TANGENT":93,"TEXCOORD_0":94},"indices":90,"mode":4,"material":0}],"name":"boot_RT"},{"primitives":[{"attributes":{"POSITION":96,"NORMAL":97,"TANGENT":98,"TEXCOORD_0":99},"indices":95,"mode":4,"material":0}],"name":"foot_LT"},{"primitives":[{"attributes":{"POSITION":101,"NORMAL":102,"TANGENT":103,"TEXCOORD_0":104},"indices":100,"mode":4,"material":0}],"name":"foot_RT"},{"primitives":[{"attributes":{"POSITION":106,"NORMAL":107,"TANGENT":108,"TEXCOORD_0":109},"indices":105,"mode":4,"material":0}],"name":"toes_LT"},{"primitives":[{"attributes":{"POSITION":111,"NORMAL":112,"TANGENT":113,"TEXCOORD_0":114},"indices":110,"mode":4,"material":0}],"name":"toes_RT"}],"accessors":[{"bufferView":0,"componentType":5123,"count":3768,"type":"SCALAR","name":"accessorIndices"},{"bufferView":1,"componentType":5126,"count":780,"max":[0.4997033,0.6527991,0.477902025],"min":[-0.4988082,-0.653004646,-0.5318938],"type":"VEC3","name":"accessorPositions"},{"bufferView":1,"byteOffset":9360,"componentType":5126,"count":780,"type":"VEC3","name":"accessorNormals"},{"bufferView":2,"componentType":5126,"count":780,"type":"VEC4","name":"accessorTangents"},{"bufferView":3,"componentType":5126,"count":780,"type":"VEC2","name":"accessorUVs"},{"bufferView":0,"byteOffset":7536,"componentType":5123,"count":4680,"type":"SCALAR","name":"accessorIndices"},{"bufferView":1,"byteOffset":18720,"componentType":5126,"count":948,"max":[0.2668458,0.615852833,0.5651749],"min":[-0.2659507,-0.202685356,-0.226845443],"type":"VEC3","name":"accessorPositions"},{"bufferView":1,"byteOffset":30096,"componentType":5126,"count":948,"type":"VEC3","name":"accessorNormals"},{"bufferView":2,"byteOffset":12480,"componentType":5126,"count":948,"type":"VEC4","name":"accessorTangents"},{"bufferView":3,"byteOffset":6240,"componentType":5126,"count":948,"type":"VEC2","name":"accessorUVs"},{"bufferView":0,"byteOffset":16896,"componentType":5123,"count":2280,"type":"SCALAR","name":"accessorIndices"},{"bufferView":1,"byteOffset":41472,"componentType":5126,"count":413,"max":[0.194501027,0.294673443,0.449688464],"min":[0.0445704274,0.144720078,0.299757928],"type":"VEC3","name":"accessorPositions"},{"bufferView":1,"byteOffset":46428,"componentType":5126,"count":413,"type":"VEC3","name":"accessorNormals"},{"bufferView":2,"byteOffset":27648,"componentType":5126,"count":413,"type":"VEC4","name":"accessorTangents"},{"bufferView":3,"byteOffset":13824,"componentType":5126,"count":413,"type":"VEC2","name":"accessorUVs"},{"bufferView":0,"byteOffset":21456,"componentType":5123,"count":2280,"type":"SCALAR","name":"accessorIndices"},{"bufferView":1,"byteOffset":51384,"componentType":5126,"count":413,"max":[-0.04349901,0.294673443,0.4496884],"min":[-0.193429485,0.144720078,0.299758],"type":"VEC3","name":"accessorPositions"},{"bufferView":1,"byteOffset":56340,"componentType":5126,"count":413,"type":"VEC3","name":"accessorNormals"},{"bufferView":2,"byteOffset":34256,"componentType":5126,"count":413,"type":"VEC4","name":"accessorTangents"},{"bufferView":3,"byteOffset":17128,"componentType":5126,"count":413,"type":"VEC2","name":"accessorUVs"},{"bufferView":0,"byteOffset":26016,"componentType":5123,"count":1080,"type":"SCALAR","name":"accessorIndices"},{"bufferView":1,"byteOffset":61296,"componentType":5126,"count":276,"max":[0.426125735,0.726501,0.341211736],"min":[-0.425663084,-0.04249525,-0.406577915],"type":"VEC3","name":"accessorPositions"},{"bufferView":1,"byteOffset":64608,"componentType":5126,"count":276,"type":"VEC3","name":"accessorNormals"},{"bufferView":2,"byteOffset":40864,"componentType":5126,"count":276,"type":"VEC4","name":"accessorTangents"},{"bufferView":3,"byteOffset":20432,"componentType":5126,"count":276,"type":"VEC2","name":"accessorUVs"},{"bufferView":0,"byteOffset":28176,"componentType":5123,"count":6210,"type":"SCALAR","name":"accessorIndices"},{"bufferView":1,"byteOffset":67920,"componentType":5126,"count":1628,"max":[1.10280561,2.21547818,0.5632458],"min":[-1.10527468,0.0168683529,-0.5514364],"type":"VEC3","name":"accessorPositions"},{"bufferView":1,"byteOffset":87456,"componentType":5126,"count":1628,"type":"VEC3","name":"accessorNormals"},{"bufferView":2,"byteOffset":45280,"componentType":5126,"count":1628,"type":"VEC4","name":"accessorTangents"},{"bufferView":3,"byteOffset":22640,"componentType":5126,"count":1628,"type":"VEC2","name":"accessorUVs"},{"bufferView":0,"byteOffset":40596,"componentType":5123,"count":1392,"type":"SCALAR","name":"accessorIndices"},{"bufferView":1,"byteOffset":106992,"componentType":5126,"count":264,"max":[0.2943632,0.20100975,0.317872256],"min":[-0.226664186,-0.08569288,-0.313173145],"type":"VEC3","name":"accessorPositions"},{"bufferView":1,"byteOffset":110160,"componentType":5126,"count":264,"type":"VEC3","name":"accessorNormals"},{"bufferView":2,"byteOffset":71328,"componentType":5126,"count":264,"type":"VEC4","name":"accessorTangents"},{"bufferView":3,"byteOffset":35664,"componentType":5126,"count":264,"type":"VEC2","name":"accessorUVs"},{"bufferView":0,"byteOffset":43380,"componentType":5123,"count":1392,"type":"SCALAR","name":"accessorIndices"},{"bufferView":1,"byteOffset":113328,"componentType":5126,"count":264,"max":[0.226664186,0.20100975,0.317872256],"min":[-0.2943632,-0.08569288,-0.313173145],"type":"VEC3","name":"accessorPositions"},{"bufferView":1,"byteOffset":116496,"componentType":5126,"count":264,"type":"VEC3","name":"accessorNormals"},{"bufferView":2,"byteOffset":75552,"componentType":5126,"count":264,"type":"VEC4","name":"accessorTangents"},{"bufferView":3,"byteOffset":37776,"componentType":5126,"count":264,"type":"VEC2","name":"accessorUVs"},{"bufferView":0,"byteOffset":46164,"componentType":5123,"count":990,"type":"SCALAR","name":"accessorIndices"},{"bufferView":1,"byteOffset":119664,"componentType":5126,"count":188,"max":[0.620064139,0.200953484,0.315138519],"min":[-0.2451315,-0.860878944,-0.2197963],"type":"VEC3","name":"accessorPositions"},{"bufferView":1,"byteOffset":121920,"componentType":5126,"count":188,"type":"VEC3","name":"accessorNormals"},{"bufferView":2,"byteOffset":79776,"componentType":5126,"count":188,"type":"VEC4","name":"accessorTangents"},{"bufferView":3,"byteOffset":39888,"componentType":5126,"count":188,"type":"VEC2","name":"accessorUVs"},{"bufferView":0,"byteOffset":48144,"componentType":5123,"count":990,"type":"SCALAR","name":"accessorIndices"},{"bufferView":1,"byteOffset":124176,"componentType":5126,"count":188,"max":[0.245308578,0.201309681,0.3153301],"min":[-0.619887054,-0.860522747,-0.219604731],"type":"VEC3","name":"accessorPositions"},{"bufferView":1,"byteOffset":126432,"componentType":5126,"count":188,"type":"VEC3","name":"accessorNormals"},{"bufferView":2,"byteOffset":82784,"componentType":5126,"count":188,"type":"VEC4","name":"accessorTangents"},{"bufferView":3,"byteOffset":41392,"componentType":5126,"count":188,"type":"VEC2","name":"accessorUVs"},{"bufferView":0,"byteOffset":50124,"componentType":5123,"count":3294,"type":"SCALAR","name":"accessorIndices"},{"bufferView":1,"byteOffset":128688,"componentType":5126,"count":1169,"max":[0.7039622,0.140619755,0.266797066],"min":[-0.140151739,-1.35874462,-0.154546738],"type":"VEC3","name":"accessorPositions"},{"bufferView":1,"byteOffset":142716,"componentType":5126,"count":1169,"type":"VEC3","name":"accessorNormals"},{"bufferView":2,"byteOffset":85792,"componentType":5126,"count":1169,"type":"VEC4","name":"accessorTangents"},{"bufferView":3,"byteOffset":42896,"componentType":5126,"count":1169,"type":"VEC2","name":"accessorUVs"},{"bufferView":0,"byteOffset":56712,"componentType":5123,"count":3294,"type":"SCALAR","name":"accessorIndices"},{"bufferView":1,"byteOffset":156744,"componentType":5126,"count":1169,"max":[0.140122414,0.141103745,0.266626537],"min":[-0.703991532,-1.35826063,-0.154717252],"type":"VEC3","name":"accessorPositions"},{"bufferView":1,"byteOffset":170772,"componentType":5126,"count":1169,"type":"VEC3","name":"accessorNormals"},{"bufferView":2,"byteOffset":104496,"componentType":5126,"count":1169,"type":"VEC4","name":"accessorTangents"},{"bufferView":3,"byteOffset":52248,"componentType":5126,"count":1169,"type":"VEC2","name":"accessorUVs"},{"bufferView":0,"byteOffset":63300,"componentType":5123,"count":1896,"type":"SCALAR","name":"accessorIndices"},{"bufferView":1,"byteOffset":184800,"componentType":5126,"count":616,"max":[0.5159682,0.05834818,0.179062381],"min":[-0.117978811,-0.7050643,-0.162633866],"type":"VEC3","name":"accessorPositions"},{"bufferView":1,"byteOffset":192192,"componentType":5126,"count":616,"type":"VEC3","name":"accessorNormals"},{"bufferView":2,"byteOffset":123200,"componentType":5126,"count":616,"type":"VEC4","name":"accessorTangents"},{"bufferView":3,"byteOffset":61600,"componentType":5126,"count":616,"type":"VEC2","name":"accessorUVs"},{"bufferView":0,"byteOffset":67092,"componentType":5123,"count":1896,"type":"SCALAR","name":"accessorIndices"},{"bufferView":1,"byteOffset":199584,"componentType":5126,"count":616,"max":[0.117978811,0.05834818,0.179062381],"min":[-0.5159682,-0.7050643,-0.162633866],"type":"VEC3","name":"accessorPositions"},{"bufferView":1,"byteOffset":206976,"componentType":5126,"count":616,"type":"VEC3","name":"accessorNormals"},{"bufferView":2,"byteOffset":133056,"componentType":5126,"count":616,"type":"VEC4","name":"accessorTangents"},{"bufferView":3,"byteOffset":66528,"componentType":5126,"count":616,"type":"VEC2","name":"accessorUVs"},{"bufferView":0,"byteOffset":70884,"componentType":5123,"count":2382,"type":"SCALAR","name":"accessorIndices"},{"bufferView":1,"byteOffset":214368,"componentType":5126,"count":574,"max":[0.581901133,0.5026064,0.452084363],"min":[-0.581901133,-0.5026064,-0.4520336],"type":"VEC3","name":"accessorPositions"},{"bufferView":1,"byteOffset":221256,"componentType":5126,"count":574,"type":"VEC3","name":"accessorNormals"},{"bufferView":2,"byteOffset":142912,"componentType":5126,"count":574,"type":"VEC4","name":"accessorTangents"},{"bufferView":3,"byteOffset":71456,"componentType":5126,"count":574,"type":"VEC2","name":"accessorUVs"},{"bufferView":0,"byteOffset":75648,"componentType":5123,"count":1164,"type":"SCALAR","name":"accessorIndices"},{"bufferView":1,"byteOffset":228144,"componentType":5126,"count":390,"max":[0.359521717,0.106099367,0.372071624],"min":[-0.306418926,-1.67727518,-0.41081816],"type":"VEC3","name":"accessorPositions"},{"bufferView":1,"byteOffset":232824,"componentType":5126,"count":390,"type":"VEC3","name":"accessorNormals"},{"bufferView":2,"byteOffset":152096,"componentType":5126,"count":390,"type":"VEC4","name":"accessorTangents"},{"bufferView":3,"byteOffset":76048,"componentType":5126,"count":390,"type":"VEC2","name":"accessorUVs"},{"bufferView":0,"byteOffset":77976,"componentType":5123,"count":1164,"type":"SCALAR","name":"accessorIndices"},{"bufferView":1,"byteOffset":237504,"componentType":5126,"count":390,"max":[0.306418926,0.106099606,0.372071654],"min":[-0.359521717,-1.677275,-0.41081813],"type":"VEC3","name":"accessorPositions"},{"bufferView":1,"byteOffset":242184,"componentType":5126,"count":390,"type":"VEC3","name":"accessorNormals"},{"bufferView":2,"byteOffset":158336,"componentType":5126,"count":390,"type":"VEC4","name":"accessorTangents"},{"bufferView":3,"byteOffset":79168,"componentType":5126,"count":390,"type":"VEC2","name":"accessorUVs"},{"bufferView":0,"byteOffset":80304,"componentType":5123,"count":1386,"type":"SCALAR","name":"accessorIndices"},{"bufferView":1,"byteOffset":246864,"componentType":5126,"count":365,"max":[0.237726271,0.069426775,0.2590373],"min":[-0.228628412,-1.58593822,-0.3620958],"type":"VEC3","name":"accessorPositions"},{"bufferView":1,"byteOffset":251244,"componentType":5126,"count":365,"type":"VEC3","name":"accessorNormals"},{"bufferView":2,"byteOffset":164576,"componentType":5126,"count":365,"type":"VEC4","name":"accessorTangents"},{"bufferView":3,"byteOffset":82288,"componentType":5126,"count":365,"type":"VEC2","name":"accessorUVs"},{"bufferView":0,"byteOffset":83076,"componentType":5123,"count":1386,"type":"SCALAR","name":"accessorIndices"},{"bufferView":1,"byteOffset":255624,"componentType":5126,"count":365,"max":[0.2290629,0.06924617,0.2586252],"min":[-0.237291783,-1.58611882,-0.36250788],"type":"VEC3","name":"accessorPositions"},{"bufferView":1,"byteOffset":260004,"componentType":5126,"count":365,"type":"VEC3","name":"accessorNormals"},{"bufferView":2,"byteOffset":170416,"componentType":5126,"count":365,"type":"VEC4","name":"accessorTangents"},{"bufferView":3,"byteOffset":85208,"componentType":5126,"count":365,"type":"VEC2","name":"accessorUVs"},{"bufferView":0,"byteOffset":85848,"componentType":5123,"count":1434,"type":"SCALAR","name":"accessorIndices"},{"bufferView":1,"byteOffset":264384,"componentType":5126,"count":452,"max":[0.200238943,0.0120132864,0.402581573],"min":[-0.196155965,-0.368311554,-0.222665027],"type":"VEC3","name":"accessorPositions"},{"bufferView":1,"byteOffset":269808,"componentType":5126,"count":452,"type":"VEC3","name":"accessorNormals"},{"bufferView":2,"byteOffset":176256,"componentType":5126,"count":452,"type":"VEC4","name":"accessorTangents"},{"bufferView":3,"byteOffset":88128,"componentType":5126,"count":452,"type":"VEC2","name":"accessorUVs"},{"bufferView":0,"byteOffset":88716,"componentType":5123,"count":1434,"type":"SCALAR","name":"accessorIndices"},{"bufferView":1,"byteOffset":275232,"componentType":5126,"count":452,"max":[0.19580549,0.011705935,0.402306348],"min":[-0.200589418,-0.3686189,-0.222940251],"type":"VEC3","name":"accessorPositions"},{"bufferView":1,"byteOffset":280656,"componentType":5126,"count":452,"type":"VEC3","name":"accessorNormals"},{"bufferView":2,"byteOffset":183488,"componentType":5126,"count":452,"type":"VEC4","name":"accessorTangents"},{"bufferView":3,"byteOffset":91744,"componentType":5126,"count":452,"type":"VEC2","name":"accessorUVs"},{"bufferView":0,"byteOffset":91584,"componentType":5123,"count":702,"type":"SCALAR","name":"accessorIndices"},{"bufferView":1,"byteOffset":286080,"componentType":5126,"count":263,"max":[0.169171572,0.119904384,0.4166001],"min":[-0.220304817,-0.0761922747,-0.0621424243],"type":"VEC3","name":"accessorPositions"},{"bufferView":1,"byteOffset":289236,"componentType":5126,"count":263,"type":"VEC3","name":"accessorNormals"},{"bufferView":2,"byteOffset":190720,"componentType":5126,"count":263,"type":"VEC4","name":"accessorTangents"},{"bufferView":3,"byteOffset":95360,"componentType":5126,"count":263,"type":"VEC2","name":"accessorUVs"},{"bufferView":0,"byteOffset":92988,"componentType":5123,"count":702,"type":"SCALAR","name":"accessorIndices"},{"bufferView":1,"byteOffset":292392,"componentType":5126,"count":263,"max":[0.219974637,0.120606691,0.414736658],"min":[-0.169501752,-0.07548997,-0.06400586],"type":"VEC3","name":"accessorPositions"},{"bufferView":1,"byteOffset":295548,"componentType":5126,"count":263,"type":"VEC3","name":"accessorNormals"},{"bufferView":2,"byteOffset":194928,"componentType":5126,"count":263,"type":"VEC4","name":"accessorTangents"},{"bufferView":3,"byteOffset":97464,"componentType":5126,"count":263,"type":"VEC2","name":"accessorUVs"}],"bufferViews":[{"buffer":0,"byteLength":94392,"name":"bufferViewScalar"},{"buffer":0,"byteOffset":94392,"byteLength":298704,"byteStride":12,"name":"bufferViewFloatVec3"},{"buffer":0,"byteOffset":393096,"byteLength":199136,"byteStride":16,"name":"bufferViewFloatVec4"},{"buffer":0,"byteOffset":592232,"byteLength":99568,"byteStride":8,"name":"bufferViewFloatVec2"}],"buffers":[{"uri":"rogue.bin","byteLength":691800}],"materials":[{"pbrMetallicRoughness":{"baseColorFactor":[1.0,1.0,1.0,1.0],"baseColorTexture":{"index":0,"texCoord":0},"metallicFactor":0.0,"roughnessFactor":0.450053632},"emissiveFactor":[0.0,0.0,0.0],"alphaMode":"OPAQUE","name":"grid"}],"textures":[{"sampler":0,"source":0,"name":"grid_baseColor.jpg"}],"images":[{"uri":"grid_baseColor.jpg"}],"samplers":[{"magFilter":9729,"minFilter":9987,"wrapS":10497,"wrapT":10497}]}