{"asset":{"version":"2.0","generator":"babylon.js glTF exporter for maya 2018 v20190805.3"},"scene":0,"scenes":[{"nodes":[0,1,2,3,4,5,6,7,8,9,10,11,12,13,14,15,16,17,18,19,20,21,22],"extensions":{}}],"nodes":[{"mesh":0,"translation":[0.000447551138,-6.000216,0.0217853412],"rotation":[0.0,0.0,0.0,1.0],"scale":[1.0,1.0,1.0],"name":"hood"},{"mesh":1,"translation":[0.000447551138,-6.000216,0.0217853412],"rotation":[0.0,0.0,0.0,1.0],"scale":[1.0,1.0,1.0],"name":"mask"},{"mesh":2,"translation":[0.000447551138,-6.000216,0.0217853412],"rotation":[0.0,0.0,0.0,1.0],"scale":[1.0,1.0,1.0],"name":"eye_LT"},{"mesh":3,"translation":[0.000447551138,-6.000216,0.0217853412],"rotation":[0.0,0.0,0.0,1.0],"scale":[1.0,1.0,1.0],"name":"eye_RT"},{"mesh":4,"translation":[0.000231325772,-5.41179657,0.01126019],"rotation":[0.0,0.0,0.0,1.0],"scale":[1.0,1.0,1.0],"name":"neck"},{"mesh":5,"translation":[-0.00123453885,-3.43599153,-0.06009335],"rotation":[0.0,0.0,0.0,1.0],"scale":[1.0,1.0,1.0],"name":"armor"},{"mesh":6,"translation":[-0.787,-5.276,0.078],"rotation":[0.0,0.0,0.0,1.0],"scale":[1.0,1.0,1.0],"name":"shoulder_LT"},{"mesh":7,"translation":[0.787,-5.276,0.078],"rotation":[0.0,0.0,0.0,1.0],"scale":[1.0,1.0,1.0],"name":"shoulder_RT"},{"mesh":8,"translation":[-0.7868229,-5.276356,0.07780845],"rotation":[0.0,0.0,0.0,1.0],"scale":[1.0,1.0,1.0],"name":"arm_LT"},{"mesh":9,"translation":[0.787,-5.276,0.078],"rotation":[0.0,0.0,0.0,1.0],"scale":[1.0,1.0,1.0],"name":"arm_RT"},{"mesh":10,"translation":[-1.26302934,-4.510484,0.03617052],"rotation":[0.0,0.0,0.0,1.0],"scale":[1.0,1.0,1.0],"name":"forearm_LT"},{"mesh":11,"translation":[1.263,-4.51,0.036],"rotation":[0.0,0.0,0.0,1.0],"scale":[1.0,1.0,1.0],"name":"forearm_RT"},{"mesh":12,"translation":[-1.263,-4.51,0.036],"rotation":[0.0,0.0,0.0,1.0],"scale":[1.0,1.0,1.0],"name":"gauntlet_LT"},{"mesh":13,"translation":[1.263,-4.51,0.036],"rotation":[0.0,0.0,0.0,1.0],"scale":[1.0,1.0,1.0],"name":"gauntlet_RT"},{"mesh":14,"translation":[0.0,-3.43606138,-0.0600981824],"rotation":[0.0,0.0,0.0,1.0],"scale":[1.0,1.0,1.0],"name":"pelvis"},{"mesh":15,"translation":[-0.3228059,-3.211986,-0.103665277],"rotation":[0.0,0.0,0.0,1.0],"scale":[1.0,1.0,1.0],"name":"leg_LT"},{"mesh":16,"translation":[0.3228059,-3.21198583,-0.10366527],"rotation":[0.0,0.0,0.0,1.0],"scale":[1.0,1.0,1.0],"name":"leg_RT"},{"mesh":17,"translation":[-0.42256552,-1.78481936,0.0364120826],"rotation":[0.0,0.0,0.0,1.0],"scale":[1.0,1.0,1.0],"name":"boot_LT"},{"mesh":18,"translation":[0.423,-1.785,0.036],"rotation":[0.0,0.0,0.0,1.0],"scale":[1.0,1.0,1.0],"name":"boot_RT"},{"mesh":19,"translation":[-0.459350467,-0.36069265,0.177275226],"rotation":[0.0,0.0,0.0,1.0],"scale":[1.0,1.0,1.0],"name":"foot_LT"},{"mesh":20,"translation":[0.459,-0.361,0.177],"rotation":[0.0,0.0,0.0,1.0],"scale":[1.0,1.0,1.0],"name":"foot_RT"},{"mesh":21,"translation":[-0.4923302,-0.0727023,-0.186136559],"rotation":[0.0,0.0,0.0,1.0],"scale":[1.0,1.0,1.0],"name":"toes_LT"},{"mesh":22,"translation":[0.492,-0.072,-0.188],"rotation":[0.0,0.0,0.0,1.0],"scale":[1.0,1.0,1.0],"name":"toes_RT"}],"meshes":[{"primitives":[{"attributes":{"POSITION":1,"NORMAL":2,"TANGENT":3,"TEXCOORD_0":4},"indices":0,"mode":4,"material":0}],"name":"hood"},{"primitives":[{"attributes":{"POSITION":6,"NORMAL":7,"TANGENT":8,"TEXCOORD_0":9},"indices":5,"mode":4,"material":0}],"name":"mask"},{"primitives":[{"attributes":{"POSITION":11,"NORMAL":12,"TANGENT":13,"TEXCOORD_0":14},"indices":10,"mode":4,"material":0}],"name":"eye_LT"},{"primitives":[{"attributes":{"POSITION":16,"NORMAL":17,"TANGENT":18,"TEXCOORD_0":19},"indices":15,"mode":4,"material":0}],"name":"eye_RT"},{"primitives":[{"attributes":{"POSITION":21,"NORMAL":22,"TANGENT":23,"TEXCOORD_0":24},"indices":20,"mode":4,"material":0}],"name":"neck"},{"primitives":[{"attributes":{"POSITION":26,"NORMAL":27,"TANGENT":28,"TEXCOORD_0":29},"indices":25,"mode":4,"material":0}],"name":"armor"},{"primitives":[{"attributes":{"POSITION":31,"NORMAL":32,"TANGENT":33,"TEXCOORD_0":34},"indices":30,"mode":4,"material":0}],"name":"shoulder_LT"},{"primitives":[{"attributes":{"POSITION":36,"NORMAL":37,"TANGENT":38,"TEXCOORD_0":39},"indices":35,"mode":4,"material":0}],"name":"shoulder_RT"},{"primitives":[{"attributes":{"POSITION":41,"NORMAL":42,"TANGENT":43,"TEXCOORD_0":44},"indices":40,"mode":4,"material":0}],"name":"arm_LT"},{"primitives":[{"attributes":{"POSITION":46,"NORMAL":47,"TANGENT":48,"TEXCOORD_0":49},"indices":45,"mode":4,"material":0}],"name":"arm_RT"},{"primitives":[{"attributes":{"POSITION":51,"NORMAL":52,"TANGENT":53,"TEXCOORD_0":54},"indices":50,"mode":4,"material":0}],"name":"forearm_LT"},{"primitives":[{"attributes":{"POSITION":56,"NORMAL":57,"TANGENT":58,"TEXCOORD_0":59},"indices":55,"mode":4,"material":0}],"name":"forearm_RT"},{"primitives":[{"attributes":{"POSITION":61,"NORMAL":62,"TANGENT":63,"TEXCOORD_0":64},"indices":60,"mode":4,"material":0}],"name":"gauntlet_LT"},{"primitives":[{"attributes":{"POSITION":66,"NORMAL":67,"TANGENT":68,"TEXCOORD_0":69},"indices":65,"mode":4,"material":0}],"name":"gauntlet_RT"},{"primitives":[{"attributes":{"POSITION":71,"NORMAL":72,"TANGENT":73,"TEXCOORD_0":74},"indices":70,"mode":4,"material":0}],"name":"pelvis"},{"primitives":[{"attributes":{"POSITION":76,"NORMAL":77,"TANGENT":78,"TEXCOORD_0":79},"indices":75,"mode":4,"material":0}],"name":"leg_LT"},{"primitives":[{"attributes":{"POSITION":81,"NORMAL":82,"TANGENT":83,"TEXCOORD_0":84},"indices":80,"mode":4,"material":0}],"name":"leg_RT"},{"primitives":[{"attributes":{"POSITION":86,"NORMAL":87,"TANGENT":88,"TEXCOORD_0":89},"indices":85,"mode":4,"material":0}],"name":"boot_LT"},{"primitives":[{"attributes":{"POSITION":91,"NORMAL":92,"TANGENT":93,"TEXCOORD_0":94},"indices":90,"mode":4,"material":0}],"name":"boot_RT"},{"primitives":[{"attributes":{"POSITION":96,"NORMAL":97,"TANGENT":98,"TEXCOORD_0":99},"indices":95,"mode":4,"material":0}],"name":"foot_LT"},{"primitives":[{"attributes":{"POSITION":101,"NORMAL":102,"TANGENT":103,"TEXCOORD_0":104},"indices":100,"mode":4,"material":0}],"name":"foot_RT"},{"primitives":[{"attributes":{"POSITION":106,"NORMAL":107,"TANGENT":108,"TEXCOORD_0":109},"indices":105,"mode":4,"material":0}],"name":"toes_LT"},{"primitives":[{"attributes":{"POSITION":111,"NORMAL":112,"TANGENT":113,"TEXCOORD_0":114},"indices":110,"mode":4,"material":0}],"name":"toes_RT"}],"accessors":[{"bufferView":0,"componentType":5123,"count":3768,"type":"SCALAR","name":"accessorIndices"},{"bufferView":1,"componentType":5126,"count":780,"max":[0.499255747,6.653015,0.456116676],"min":[-0.499255747,5.34721136,-0.5536791],"type":"VEC3","name":"accessorPositions"},{"bufferView":1,"byteOffset":9360,"componentType":5126,"count":780,"type":"VEC3","name":"accessorNormals"},{"bufferView":2,"componentType":5126,"count":780,"type":"VEC4","name":"accessorTangents"},{"bufferView":3,"componentType":5126,"count":780,"type":"VEC2","name":"accessorUVs"},{"bufferView":0,"byteOffset":7536,"componentType":5123,"count":4680,"type":"SCALAR","name":"accessorIndices"},{"bufferView":1,"byteOffset":18720,"componentType":5126,"count":948,"max":[0.266398251,6.616069,0.543389559],"min":[-0.266398251,5.79753065,-0.248630792],"type":"VEC3","name":"accessorPositions"},{"bufferView":1,"byteOffset":30096,"componentType":5126,"count":948,"type":"VEC3","name":"accessorNormals"},{"bufferView":2,"byteOffset":12480,"componentType":5126,"count":948,"type":"VEC4","name":"accessorTangents"},{"bufferView":3,"byteOffset":6240,"componentType":5126,"count":948,"type":"VEC2","name":"accessorUVs"},{"bufferView":0,"byteOffset":16896,"componentType":5123,"count":2280,"type":"SCALAR","name":"accessorIndices"},{"bufferView":1,"byteOffset":41472,"componentType":5126,"count":413,"max":[0.194053471,6.29488945,0.427903116],"min":[0.0441228747,6.144936,0.277972579],"type":"VEC3","name":"accessorPositions"},{"bufferView":1,"byteOffset":46428,"componentType":5126,"count":413,"type":"VEC3","name":"accessorNormals"},{"bufferView":2,"byteOffset":27648,"componentType":5126,"count":413,"type":"VEC4","name":"accessorTangents"},{"bufferView":3,"byteOffset":13824,"componentType":5126,"count":413,"type":"VEC2","name":"accessorUVs"},{"bufferView":0,"byteOffset":21456,"componentType":5123,"count":2280,"type":"SCALAR","name":"accessorIndices"},{"bufferView":1,"byteOffset":51384,"componentType":5126,"count":413,"max":[-0.0439465642,6.29488945,0.427903056],"min":[-0.193877041,6.144936,0.277972639],"type":"VEC3","name":"accessorPositions"},{"bufferView":1,"byteOffset":56340,"componentType":5126,"count":413,"type":"VEC3","name":"accessorNormals"},{"bufferView":2,"byteOffset":34256,"componentType":5126,"count":413,"type":"VEC4","name":"accessorTangents"},{"bufferView":3,"byteOffset":17128,"componentType":5126,"count":413,"type":"VEC2","name":"accessorUVs"},{"bufferView":0,"byteOffset":26016,"componentType":5123,"count":1080,"type":"SCALAR","name":"accessorIndices"},{"bufferView":1,"byteOffset":61296,"componentType":5126,"count":276,"max":[0.4258944,6.13829756,0.329951555],"min":[-0.4258944,5.36930132,-0.4178381],"type":"VEC3","name":"accessorPositions"},{"bufferView":1,"byteOffset":64608,"componentType":5126,"count":276,"type":"VEC3","name":"accessorNormals"},{"bufferView":2,"byteOffset":40864,"componentType":5126,"count":276,"type":"VEC4","name":"accessorTangents"},{"bufferView":3,"byteOffset":20432,"componentType":5126,"count":276,"type":"VEC2","name":"accessorUVs"},{"bufferView":0,"byteOffset":28176,"componentType":5123,"count":6210,"type":"SCALAR","name":"accessorIndices"},{"bufferView":1,"byteOffset":67920,"componentType":5126,"count":1628,"max":[1.10404015,5.65146971,0.6233391],"min":[-1.10404015,3.45285988,-0.491343051],"type":"VEC3","name":"accessorPositions"},{"bufferView":1,"byteOffset":87456,"componentType":5126,"count":1628,"type":"VEC3","name":"accessorNormals"},{"bufferView":2,"byteOffset":45280,"componentType":5126,"count":1628,"type":"VEC4","name":"accessorTangents"},{"bufferView":3,"byteOffset":22640,"componentType":5126,"count":1628,"type":"VEC2","name":"accessorUVs"},{"bufferView":0,"byteOffset":40596,"componentType":5123,"count":1392,"type":"SCALAR","name":"accessorIndices"},{"bufferView":1,"byteOffset":106992,"componentType":5126,"count":264,"max":[1.0813632,5.47701,0.239872247],"min":[0.5603358,5.190307,-0.391173154],"type":"VEC3","name":"accessorPositions"},{"bufferView":1,"byteOffset":110160,"componentType":5126,"count":264,"type":"VEC3","name":"accessorNormals"},{"bufferView":2,"byteOffset":71328,"componentType":5126,"count":264,"type":"VEC4","name":"accessorTangents"},{"bufferView":3,"byteOffset":35664,"componentType":5126,"count":264,"type":"VEC2","name":"accessorUVs"},{"bufferView":0,"byteOffset":43380,"componentType":5123,"count":1392,"type":"SCALAR","name":"accessorIndices"},{"bufferView":1,"byteOffset":113328,"componentType":5126,"count":264,"max":[-0.5603358,5.47701,0.239872247],"min":[-1.0813632,5.190307,-0.391173154],"type":"VEC3","name":"accessorPositions"},{"bufferView":1,"byteOffset":116496,"componentType":5126,"count":264,"type":"VEC3","name":"accessorNormals"},{"bufferView":2,"byteOffset":75552,"componentType":5126,"count":264,"type":"VEC4","name":"accessorTangents"},{"bufferView":3,"byteOffset":37776,"componentType":5126,"count":264,"type":"VEC2","name":"accessorUVs"},{"bufferView":0,"byteOffset":46164,"componentType":5123,"count":990,"type":"SCALAR","name":"accessorIndices"},{"bufferView":1,"byteOffset":119664,"componentType":5126,"count":188,"max":[1.406887,5.4773097,0.237330079],"min":[0.5416914,4.41547728,-0.29760474],"type":"VEC3","name":"accessorPositions"},{"bufferView":1,"byteOffset":121920,"componentType":5126,"count":188,"type":"VEC3","name":"accessorNormals"},{"bufferView":2,"byteOffset":79776,"componentType":5126,"count":188,"type":"VEC4","name":"accessorTangents"},{"bufferView":3,"byteOffset":39888,"componentType":5126,"count":188,"type":"VEC2","name":"accessorUVs"},{"bufferView":0,"byteOffset":48144,"componentType":5123,"count":990,"type":"SCALAR","name":"accessorIndices"},{"bufferView":1,"byteOffset":124176,"componentType":5126,"count":188,"max":[-0.5416914,5.4773097,0.237330079],"min":[-1.406887,4.41547728,-0.29760474],"type":"VEC3","name":"accessorPositions"},{"bufferView":1,"byteOffset":126432,"componentType":5126,"count":188,"type":"VEC3","name":"accessorNormals"},{"bufferView":2,"byteOffset":82784,"componentType":5126,"count":188,"type":"VEC4","name":"accessorTangents"},{"bufferView":3,"byteOffset":41392,"componentType":5126,"count":188,"type":"VEC2","name":"accessorUVs"},{"bufferView":0,"byteOffset":50124,"componentType":5123,"count":3294,"type":"SCALAR","name":"accessorIndices"},{"bufferView":1,"byteOffset":128688,"componentType":5126,"count":1169,"max":[1.96699154,4.651104,0.230626538],"min":[1.1228776,3.1517396,-0.19071725],"type":"VEC3","name":"accessorPositions"},{"bufferView":1,"byteOffset":142716,"componentType":5126,"count":1169,"type":"VEC3","name":"accessorNormals"},{"bufferView":2,"byteOffset":85792,"componentType":5126,"count":1169,"type":"VEC4","name":"accessorTangents"},{"bufferView":3,"byteOffset":42896,"componentType":5126,"count":1169,"type":"VEC2","name":"accessorUVs"},{"bufferView":0,"byteOffset":56712,"componentType":5123,"count":3294,"type":"SCALAR","name":"accessorIndices"},{"bufferView":1,"byteOffset":156744,"componentType":5126,"count":1169,"max":[-1.1228776,4.651104,0.230626538],"min":[-1.96699154,3.1517396,-0.19071725],"type":"VEC3","name":"accessorPositions"},{"bufferView":1,"byteOffset":170772,"componentType":5126,"count":1169,"type":"VEC3","name":"accessorNormals"},{"bufferView":2,"byteOffset":104496,"componentType":5126,"count":1169,"type":"VEC4","name":"accessorTangents"},{"bufferView":3,"byteOffset":52248,"componentType":5126,"count":1169,"type":"VEC2","name":"accessorUVs"},{"bufferView":0,"byteOffset":63300,"componentType":5123,"count":1896,"type":"SCALAR","name":"accessorIndices"},{"bufferView":1,"byteOffset":184800,"componentType":5126,"count":616,"max":[1.77896821,4.56834841,0.143062383],"min":[1.1450212,3.804936,-0.198633865],"type":"VEC3","name":"accessorPositions"},{"bufferView":1,"byteOffset":192192,"componentType":5126,"count":616,"type":"VEC3","name":"accessorNormals"},{"bufferView":2,"byteOffset":123200,"componentType":5126,"count":616,"type":"VEC4","name":"accessorTangents"},{"bufferView":3,"byteOffset":61600,"componentType":5126,"count":616,"type":"VEC2","name":"accessorUVs"},{"bufferView":0,"byteOffset":67092,"componentType":5123,"count":1896,"type":"SCALAR","name":"accessorIndices"},{"bufferView":1,"byteOffset":199584,"componentType":5126,"count":616,"max":[-1.1450212,4.56834841,0.143062383],"min":[-1.77896821,3.804936,-0.198633865],"type":"VEC3","name":"accessorPositions"},{"bufferView":1,"byteOffset":206976,"componentType":5126,"count":616,"type":"VEC3","name":"accessorNormals"},{"bufferView":2,"byteOffset":133056,"componentType":5126,"count":616,"type":"VEC4","name":"accessorTangents"},{"bufferView":3,"byteOffset":66528,"componentType":5126,"count":616,"type":"VEC2","name":"accessorUVs"},{"bufferView":0,"byteOffset":70884,"componentType":5123,"count":2382,"type":"SCALAR","name":"accessorIndices"},{"bufferView":1,"byteOffset":214368,"componentType":5126,"count":576,"max":[0.581901133,3.93866777,0.512182534],"min":[-0.581901133,2.933455,-0.391935438],"type":"VEC3","name":"accessorPositions"},{"bufferView":1,"byteOffset":221280,"componentType":5126,"count":576,"type":"VEC3","name":"accessorNormals"},{"bufferView":2,"byteOffset":142912,"componentType":5126,"count":576,"type":"VEC4","name":"accessorTangents"},{"bufferView":3,"byteOffset":71456,"componentType":5126,"count":576,"type":"VEC2","name":"accessorUVs"},{"bufferView":0,"byteOffset":75648,"componentType":5123,"count":1164,"type":"SCALAR","name":"accessorIndices"},{"bufferView":1,"byteOffset":228192,"componentType":5126,"count":390,"max":[0.6823276,3.31808543,0.475736916],"min":[0.0163869821,1.53471088,-0.307152867],"type":"VEC3","name":"accessorPositions"},{"bufferView":1,"byteOffset":232872,"componentType":5126,"count":390,"type":"VEC3","name":"accessorNormals"},{"bufferView":2,"byteOffset":152128,"componentType":5126,"count":390,"type":"VEC4","name":"accessorTangents"},{"bufferView":3,"byteOffset":76064,"componentType":5126,"count":390,"type":"VEC2","name":"accessorUVs"},{"bufferView":0,"byteOffset":77976,"componentType":5123,"count":1164,"type":"SCALAR","name":"accessorIndices"},{"bufferView":1,"byteOffset":237552,"componentType":5126,"count":390,"max":[-0.0163869821,3.31808543,0.475736916],"min":[-0.6823276,1.53471088,-0.307152867],"type":"VEC3","name":"accessorPositions"},{"bufferView":1,"byteOffset":242232,"componentType":5126,"count":390,"type":"VEC3","name":"accessorNormals"},{"bufferView":2,"byteOffset":158368,"componentType":5126,"count":390,"type":"VEC4","name":"accessorTangents"},{"bufferView":3,"byteOffset":79184,"componentType":5126,"count":390,"type":"VEC2","name":"accessorUVs"},{"bufferView":0,"byteOffset":80304,"componentType":5123,"count":1386,"type":"SCALAR","name":"accessorIndices"},{"bufferView":1,"byteOffset":246912,"componentType":5126,"count":365,"max":[0.6602918,1.85424614,0.2226252],"min":[0.193937108,0.198881149,-0.3985079],"type":"VEC3","name":"accessorPositions"},{"bufferView":1,"byteOffset":251292,"componentType":5126,"count":365,"type":"VEC3","name":"accessorNormals"},{"bufferView":2,"byteOffset":164608,"componentType":5126,"count":365,"type":"VEC4","name":"accessorTangents"},{"bufferView":3,"byteOffset":82304,"componentType":5126,"count":365,"type":"VEC2","name":"accessorUVs"},{"bufferView":0,"byteOffset":83076,"componentType":5123,"count":1386,"type":"SCALAR","name":"accessorIndices"},{"bufferView":1,"byteOffset":255672,"componentType":5126,"count":365,"max":[-0.193937108,1.85424614,0.2226252],"min":[-0.6602918,0.198881149,-0.3985079],"type":"VEC3","name":"accessorPositions"},{"bufferView":1,"byteOffset":260052,"componentType":5126,"count":365,"type":"VEC3","name":"accessorNormals"},{"bufferView":2,"byteOffset":170448,"componentType":5126,"count":365,"type":"VEC4","name":"accessorTangents"},{"bufferView":3,"byteOffset":85224,"componentType":5126,"count":365,"type":"VEC2","name":"accessorUVs"},{"bufferView":0,"byteOffset":85848,"componentType":5123,"count":1434,"type":"SCALAR","name":"accessorIndices"},{"bufferView":1,"byteOffset":264432,"componentType":5126,"count":452,"max":[0.6595894,0.372705936,0.225306347],"min":[0.2631945,-0.007618904,-0.399940252],"type":"VEC3","name":"accessorPositions"},{"bufferView":1,"byteOffset":269856,"componentType":5126,"count":452,"type":"VEC3","name":"accessorNormals"},{"bufferView":2,"byteOffset":176288,"componentType":5126,"count":452,"type":"VEC4","name":"accessorTangents"},{"bufferView":3,"byteOffset":88144,"componentType":5126,"count":452,"type":"VEC2","name":"accessorUVs"},{"bufferView":0,"byteOffset":88716,"componentType":5123,"count":1434,"type":"SCALAR","name":"accessorIndices"},{"bufferView":1,"byteOffset":275280,"componentType":5126,"count":452,"max":[-0.2631945,0.372705936,0.225306347],"min":[-0.6595894,-0.007618904,-0.399940252],"type":"VEC3","name":"accessorPositions"},{"bufferView":1,"byteOffset":280704,"componentType":5126,"count":452,"type":"VEC3","name":"accessorNormals"},{"bufferView":2,"byteOffset":183520,"componentType":5126,"count":452,"type":"VEC4","name":"accessorTangents"},{"bufferView":3,"byteOffset":91760,"componentType":5126,"count":452,"type":"VEC2","name":"accessorUVs"},{"bufferView":0,"byteOffset":91584,"componentType":5123,"count":702,"type":"SCALAR","name":"accessorIndices"},{"bufferView":1,"byteOffset":286128,"componentType":5126,"count":263,"max":[0.661501765,0.192606688,0.602736652],"min":[0.272025377,-0.00348997116,0.123994134],"type":"VEC3","name":"accessorPositions"},{"bufferView":1,"byteOffset":289284,"componentType":5126,"count":263,"type":"VEC3","name":"accessorNormals"},{"bufferView":2,"byteOffset":190752,"componentType":5126,"count":263,"type":"VEC4","name":"accessorTangents"},{"bufferView":3,"byteOffset":95376,"componentType":5126,"count":263,"type":"VEC2","name":"accessorUVs"},{"bufferView":0,"byteOffset":92988,"componentType":5123,"count":702,"type":"SCALAR","name":"accessorIndices"},{"bufferView":1,"byteOffset":292440,"componentType":5126,"count":263,"max":[-0.272025377,0.192606688,0.602736652],"min":[-0.661501765,-0.00348997116,0.123994134],"type":"VEC3","name":"accessorPositions"},{"bufferView":1,"byteOffset":295596,"componentType":5126,"count":263,"type":"VEC3","name":"accessorNormals"},{"bufferView":2,"byteOffset":194960,"componentType":5126,"count":263,"type":"VEC4","name":"accessorTangents"},{"bufferView":3,"byteOffset":97480,"componentType":5126,"count":263,"type":"VEC2","name":"accessorUVs"}],"bufferViews":[{"buffer":0,"byteLength":94392,"name":"bufferViewScalar"},{"buffer":0,"byteOffset":94392,"byteLength":298752,"byteStride":12,"name":"bufferViewFloatVec3"},{"buffer":0,"byteOffset":393144,"byteLength":199168,"byteStride":16,"name":"bufferViewFloatVec4"},{"buffer":0,"byteOffset":592312,"byteLength":99584,"byteStride":8,"name":"bufferViewFloatVec2"}],"buffers":[{"uri":"rogue.bin","byteLength":691896}],"materials":[{"pbrMetallicRoughness":{"baseColorFactor":[0.5,0.5,0.5,1.0],"metallicFactor":0.0,"roughnessFactor":0.450053632},"emissiveFactor":[0.0,0.0,0.0],"alphaMode":"OPAQUE","name":"grid"}]}